<svg xmlns="http://www.w3.org/2000/svg" width="200" height="200" viewBox="0 0 200 200">
  <polygon id="circle-points" 
    points="
      150,100 149.04,110.31 146.19,120.31 141.57,129.39 135.36,137.23 127.78,143.51 119.13,148.05 109.73,150.67 100,151.26 90.27,149.81 81.08,146.4 72.63,141.19 65.27,134.39 59.27,126.27 54.9,117.2 52.34,107.54 51.73,97.62 53.09,87.79 56.36,78.5 61.4,70.11 68.09,63 76.08,57.47 85,53.77 94.4,52.1 104.01,52.53 113.4,55.04 121.97,59.52 129.35,65.73 135.23,73.34 139.36,81.95 141.57,91.15"
    fill="none" stroke="black" stroke-width="2" />
</svg>