<svg xmlns="http://www.w3.org/2000/svg" width="420" height="420" viewBox="-740 -740 1680 1680">
  <path id="circle-points-enlarged-4x"
    d="M 900.00,100.00
       L 884.64,265.12
       L 839.20,425.12
       L 765.28,570.40
       L 665.76,695.84
       L 544.48,796.32
       L 406.24,868.96
       L 255.84,910.88
       L 100.00,920.16
       L -55.52,897.12
       L -202.72,842.40
       L -340.96,759.20
       L -455.52,650.40
       L -551.52,520.48
       L -621.60,375.20
       L -662.56,220.64
       L -672.16,21.92
       L -650.40,-175.20
       L -598.24,-388.00
       L -517.60,-538.08
       L -410.40,-652.00
       L -282.72,-724.32
       L -140.00,-759.52
       L 10.40,-778.40
       L 164.32,-775.36
       L 314.40,-739.36
       L 435.68,-675.68
       L 528.16,-588.16
       L 583.84,-486.56
       L 617.76,-380.64
       L 624.48,-233.44 Z"
    fill="none" stroke="black" stroke-width="2" />
</svg>
